<svg width="128" height="128" viewBox="0 0 128 128" fill="none" xmlns="http://www.w3.org/2000/svg">
<path d="M11.5375 0.809996C11.12 0.907496 10.805 1.09 10.4475 1.4475C10.1575 1.735 9.95 2.0275 9.75 2.425C8.5575 4.81 8.96 8.745 10.6325 11C10.86 11.3075 11.255 11.7125 11.525 11.915C12.41 12.5825 13.405 12.6175 14.2025 12.01C15.02 11.385 15.58 10.18 15.7925 8.5875C15.845 8.1775 15.855 6.9075 15.805 6.4875C15.6 4.7325 15.0775 3.28 14.26 2.1825C14.055 1.91 13.6525 1.5 13.4 1.3075C13.165 1.13 12.72 0.899996 12.4875 0.837496C12.28 0.779996 11.7325 0.764996 11.5375 0.809996Z" fill="#FFE5E5"/>
<path d="M21.365 1.315C20.5875 1.4675 19.775 2.0625 19.1025 2.9675C18.2375 4.13 17.6525 5.6675 17.4325 7.3625C17.3625 7.9025 17.37 9.1075 17.445 9.5975C17.62 10.715 17.9925 11.57 18.55 12.125C19.0275 12.605 19.6275 12.8275 20.2375 12.755C21.69 12.575 23.1225 10.99 23.8875 8.715C24.5225 6.8275 24.59 4.84 24.07 3.325C23.5625 1.8475 22.5325 1.0825 21.365 1.315Z" fill="#FFE5E5"/>
<path d="M5.23751 9.47499C4.21501 9.63749 3.44501 10.4625 3.09751 11.7725C2.90001 12.525 2.87251 13.5625 3.02751 14.475C3.38501 16.6 4.61501 18.5525 6.07001 19.3075C6.81501 19.6925 7.55751 19.76 8.19501 19.495C9.13501 19.105 9.75251 18.095 9.95501 16.6125C9.99501 16.315 9.99501 15.4325 9.95251 15.0875C9.62751 12.3325 7.93001 9.91499 6.04251 9.51249C5.82001 9.46499 5.42501 9.44749 5.23751 9.47499Z" fill="#FFE5E5"/>
<path d="M26.425 11.5C25.525 11.6925 24.6425 12.325 23.91 13.305C23.115 14.37 22.58 15.76 22.425 17.16C22.385 17.525 22.3925 18.31 22.4375 18.6625C22.7425 21.0325 24.3525 22.17 26.175 21.31C27.1525 20.8475 28.0375 19.895 28.67 18.6275C29.87 16.2275 29.7925 13.415 28.4875 12.1125C27.9375 11.5625 27.18 11.3375 26.425 11.5Z" fill="#FFE5E5"/>
<path d="M15.5625 15.9475C13.9075 16.2425 11.82 17.98 9.97 20.6C8.5225 22.6525 7.5025 24.8625 7.1975 26.6125C7.125 27.0325 7.1175 27.7825 7.1825 28.07C7.285 28.5175 7.4575 28.8125 7.7925 29.125C8.3525 29.6425 9.025 29.9475 9.8675 30.065C10.305 30.125 11.19 30.1025 11.7525 30.0175C12.505 29.9 13.14 29.7475 14.5625 29.3375C15.9375 28.9425 16.3225 28.86 16.7025 28.885C17.185 28.9175 17.5475 29.035 18.5875 29.4925C19.3325 29.82 19.7475 29.975 20.1025 30.0625C21.4275 30.3825 22.5425 29.965 23.69 28.72C24.0325 28.35 24.1375 28.17 24.245 27.7775C24.305 27.5525 24.31 27.5025 24.31 26.975C24.31 26.4975 24.3025 26.3625 24.2525 26.0875C23.9575 24.42 23.08 22.405 21.8125 20.4875C20.305 18.2075 18.535 16.565 17.0575 16.0775C16.52 15.9 16.0625 15.86 15.5625 15.9475Z" fill="#FFE5E5"/>
<path d="M75.5375 0.809996C75.12 0.907496 74.805 1.09 74.4475 1.4475C74.1575 1.735 73.95 2.0275 73.75 2.425C72.5575 4.81 72.96 8.745 74.6325 11C74.86 11.3075 75.255 11.7125 75.525 11.915C76.41 12.5825 77.405 12.6175 78.2025 12.01C79.02 11.385 79.58 10.18 79.7925 8.5875C79.845 8.1775 79.855 6.9075 79.805 6.4875C79.6 4.7325 79.0775 3.28 78.26 2.1825C78.055 1.91 77.6525 1.5 77.4 1.3075C77.165 1.13 76.72 0.899996 76.4875 0.837496C76.28 0.779996 75.7325 0.764996 75.5375 0.809996Z" fill="#FFE5E5"/>
<path d="M85.365 1.315C84.5875 1.4675 83.775 2.0625 83.1025 2.9675C82.2375 4.13 81.6525 5.6675 81.4325 7.3625C81.3625 7.9025 81.37 9.1075 81.445 9.5975C81.62 10.715 81.9925 11.57 82.55 12.125C83.0275 12.605 83.6275 12.8275 84.2375 12.755C85.69 12.575 87.1225 10.99 87.8875 8.715C88.5225 6.8275 88.59 4.84 88.07 3.325C87.5625 1.8475 86.5325 1.0825 85.365 1.315Z" fill="#FFE5E5"/>
<path d="M69.2375 9.47499C68.215 9.63749 67.445 10.4625 67.0975 11.7725C66.9 12.525 66.8725 13.5625 67.0275 14.475C67.385 16.6 68.615 18.5525 70.07 19.3075C70.815 19.6925 71.5575 19.76 72.195 19.495C73.135 19.105 73.7525 18.095 73.955 16.6125C73.995 16.315 73.995 15.4325 73.9525 15.0875C73.6275 12.3325 71.93 9.91499 70.0425 9.51249C69.82 9.46499 69.425 9.44749 69.2375 9.47499Z" fill="#FFE5E5"/>
<path d="M90.425 11.5C89.525 11.6925 88.6425 12.325 87.91 13.305C87.115 14.37 86.58 15.76 86.425 17.16C86.385 17.525 86.3925 18.31 86.4375 18.6625C86.7425 21.0325 88.3525 22.17 90.175 21.31C91.1525 20.8475 92.0375 19.895 92.67 18.6275C93.87 16.2275 93.7925 13.415 92.4875 12.1125C91.9375 11.5625 91.18 11.3375 90.425 11.5Z" fill="#FFE5E5"/>
<path d="M79.5625 15.9475C77.9075 16.2425 75.82 17.98 73.97 20.6C72.5225 22.6525 71.5025 24.8625 71.1975 26.6125C71.125 27.0325 71.1175 27.7825 71.1825 28.07C71.285 28.5175 71.4575 28.8125 71.7925 29.125C72.3525 29.6425 73.025 29.9475 73.8675 30.065C74.305 30.125 75.19 30.1025 75.7525 30.0175C76.505 29.9 77.14 29.7475 78.5625 29.3375C79.9375 28.9425 80.3225 28.86 80.7025 28.885C81.185 28.9175 81.5475 29.035 82.5875 29.4925C83.3325 29.82 83.7475 29.975 84.1025 30.0625C85.4275 30.3825 86.5425 29.965 87.69 28.72C88.0325 28.35 88.1375 28.17 88.245 27.7775C88.305 27.5525 88.31 27.5025 88.31 26.975C88.31 26.4975 88.3025 26.3625 88.2525 26.0875C87.9575 24.42 87.08 22.405 85.8125 20.4875C84.305 18.2075 82.535 16.565 81.0575 16.0775C80.52 15.9 80.0625 15.86 79.5625 15.9475Z" fill="#FFE5E5"/>
<path d="M75.5375 64.81C75.12 64.9075 74.805 65.09 74.4475 65.4475C74.1575 65.735 73.95 66.0275 73.75 66.425C72.5575 68.81 72.96 72.745 74.6325 75C74.86 75.3075 75.255 75.7125 75.525 75.915C76.41 76.5825 77.405 76.6175 78.2025 76.01C79.02 75.385 79.58 74.18 79.7925 72.5875C79.845 72.1775 79.855 70.9075 79.805 70.4875C79.6 68.7325 79.0775 67.28 78.26 66.1825C78.055 65.91 77.6525 65.5 77.4 65.3075C77.165 65.13 76.72 64.9 76.4875 64.8375C76.28 64.78 75.7325 64.765 75.5375 64.81Z" fill="#FFE5E5"/>
<path d="M85.365 65.315C84.5875 65.4675 83.775 66.0625 83.1025 66.9675C82.2375 68.13 81.6525 69.6675 81.4325 71.3625C81.3625 71.9025 81.37 73.1075 81.445 73.5975C81.62 74.715 81.9925 75.57 82.55 76.125C83.0275 76.605 83.6275 76.8275 84.2375 76.755C85.69 76.575 87.1225 74.99 87.8875 72.715C88.5225 70.8275 88.59 68.84 88.07 67.325C87.5625 65.8475 86.5325 65.0825 85.365 65.315Z" fill="#FFE5E5"/>
<path d="M69.2375 73.475C68.215 73.6375 67.445 74.4625 67.0975 75.7725C66.9 76.525 66.8725 77.5625 67.0275 78.475C67.385 80.6 68.615 82.5525 70.07 83.3075C70.815 83.6925 71.5575 83.76 72.195 83.495C73.135 83.105 73.7525 82.095 73.955 80.6125C73.995 80.315 73.995 79.4325 73.9525 79.0875C73.6275 76.3325 71.93 73.915 70.0425 73.5125C69.82 73.465 69.425 73.4475 69.2375 73.475Z" fill="#FFE5E5"/>
<path d="M90.425 75.5C89.525 75.6925 88.6425 76.325 87.91 77.305C87.115 78.37 86.58 79.76 86.425 81.16C86.385 81.525 86.3925 82.31 86.4375 82.6625C86.7425 85.0325 88.3525 86.17 90.175 85.31C91.1525 84.8475 92.0375 83.895 92.67 82.6275C93.87 80.2275 93.7925 77.415 92.4875 76.1125C91.9375 75.5625 91.18 75.3375 90.425 75.5Z" fill="#FFE5E5"/>
<path d="M79.5625 79.9475C77.9075 80.2425 75.82 81.98 73.97 84.6C72.5225 86.6525 71.5025 88.8625 71.1975 90.6125C71.125 91.0325 71.1175 91.7825 71.1825 92.07C71.285 92.5175 71.4575 92.8125 71.7925 93.125C72.3525 93.6425 73.025 93.9475 73.8675 94.065C74.305 94.125 75.19 94.1025 75.7525 94.0175C76.505 93.9 77.14 93.7475 78.5625 93.3375C79.9375 92.9425 80.3225 92.86 80.7025 92.885C81.185 92.9175 81.5475 93.035 82.5875 93.4925C83.3325 93.82 83.7475 93.975 84.1025 94.0625C85.4275 94.3825 86.5425 93.965 87.69 92.72C88.0325 92.35 88.1375 92.17 88.245 91.7775C88.305 91.5525 88.31 91.5025 88.31 90.975C88.31 90.4975 88.3025 90.3625 88.2525 90.0875C87.9575 88.42 87.08 86.405 85.8125 84.4875C84.305 82.2075 82.535 80.565 81.0575 80.0775C80.52 79.9 80.0625 79.86 79.5625 79.9475Z" fill="#FFE5E5"/>
<path d="M11.5375 64.81C11.12 64.9075 10.805 65.09 10.4475 65.4475C10.1575 65.735 9.95 66.0275 9.75 66.425C8.5575 68.81 8.96 72.745 10.6325 75C10.86 75.3075 11.255 75.7125 11.525 75.915C12.41 76.5825 13.405 76.6175 14.2025 76.01C15.02 75.385 15.58 74.18 15.7925 72.5875C15.845 72.1775 15.855 70.9075 15.805 70.4875C15.6 68.7325 15.0775 67.28 14.26 66.1825C14.055 65.91 13.6525 65.5 13.4 65.3075C13.165 65.13 12.72 64.9 12.4875 64.8375C12.28 64.78 11.7325 64.765 11.5375 64.81Z" fill="#FFE5E5"/>
<path d="M21.365 65.315C20.5875 65.4675 19.775 66.0625 19.1025 66.9675C18.2375 68.13 17.6525 69.6675 17.4325 71.3625C17.3625 71.9025 17.37 73.1075 17.445 73.5975C17.62 74.715 17.9925 75.57 18.55 76.125C19.0275 76.605 19.6275 76.8275 20.2375 76.755C21.69 76.575 23.1225 74.99 23.8875 72.715C24.5225 70.8275 24.59 68.84 24.07 67.325C23.5625 65.8475 22.5325 65.0825 21.365 65.315Z" fill="#FFE5E5"/>
<path d="M5.23751 73.475C4.21501 73.6375 3.44501 74.4625 3.09751 75.7725C2.90001 76.525 2.87251 77.5625 3.02751 78.475C3.38501 80.6 4.61501 82.5525 6.07001 83.3075C6.81501 83.6925 7.55751 83.76 8.19501 83.495C9.13501 83.105 9.75251 82.095 9.95501 80.6125C9.99501 80.315 9.99501 79.4325 9.95251 79.0875C9.62751 76.3325 7.93001 73.915 6.04251 73.5125C5.82001 73.465 5.42501 73.4475 5.23751 73.475Z" fill="#FFE5E5"/>
<path d="M26.425 75.5C25.525 75.6925 24.6425 76.325 23.91 77.305C23.115 78.37 22.58 79.76 22.425 81.16C22.385 81.525 22.3925 82.31 22.4375 82.6625C22.7425 85.0325 24.3525 86.17 26.175 85.31C27.1525 84.8475 28.0375 83.895 28.67 82.6275C29.87 80.2275 29.7925 77.415 28.4875 76.1125C27.9375 75.5625 27.18 75.3375 26.425 75.5Z" fill="#FFE5E5"/>
<path d="M15.5625 79.9475C13.9075 80.2425 11.82 81.98 9.97 84.6C8.5225 86.6525 7.5025 88.8625 7.1975 90.6125C7.125 91.0325 7.1175 91.7825 7.1825 92.07C7.285 92.5175 7.4575 92.8125 7.7925 93.125C8.3525 93.6425 9.025 93.9475 9.8675 94.065C10.305 94.125 11.19 94.1025 11.7525 94.0175C12.505 93.9 13.14 93.7475 14.5625 93.3375C15.9375 92.9425 16.3225 92.86 16.7025 92.885C17.185 92.9175 17.5475 93.035 18.5875 93.4925C19.3325 93.82 19.7475 93.975 20.1025 94.0625C21.4275 94.3825 22.5425 93.965 23.69 92.72C24.0325 92.35 24.1375 92.17 24.245 91.7775C24.305 91.5525 24.31 91.5025 24.31 90.975C24.31 90.4975 24.3025 90.3625 24.2525 90.0875C23.9575 88.42 23.08 86.405 21.8125 84.4875C20.305 82.2075 18.535 80.565 17.0575 80.0775C16.52 79.9 16.0625 79.86 15.5625 79.9475Z" fill="#FFE5E5"/>
<path d="M43.5375 32.81C43.12 32.9075 42.805 33.09 42.4475 33.4475C42.1575 33.735 41.95 34.0275 41.75 34.425C40.5575 36.81 40.96 40.745 42.6325 43C42.86 43.3075 43.255 43.7125 43.525 43.915C44.41 44.5825 45.405 44.6175 46.2025 44.01C47.02 43.385 47.58 42.18 47.7925 40.5875C47.845 40.1775 47.855 38.9075 47.805 38.4875C47.6 36.7325 47.0775 35.28 46.26 34.1825C46.055 33.91 45.6525 33.5 45.4 33.3075C45.165 33.13 44.72 32.9 44.4875 32.8375C44.28 32.78 43.7325 32.765 43.5375 32.81Z" fill="#FFE5E5"/>
<path d="M53.365 33.315C52.5875 33.4675 51.775 34.0625 51.1025 34.9675C50.2375 36.13 49.6525 37.6675 49.4325 39.3625C49.3625 39.9025 49.37 41.1075 49.445 41.5975C49.62 42.715 49.9925 43.57 50.55 44.125C51.0275 44.605 51.6275 44.8275 52.2375 44.755C53.69 44.575 55.1225 42.99 55.8875 40.715C56.5225 38.8275 56.59 36.84 56.07 35.325C55.5625 33.8475 54.5325 33.0825 53.365 33.315Z" fill="#FFE5E5"/>
<path d="M37.2375 41.475C36.215 41.6375 35.445 42.4625 35.0975 43.7725C34.9 44.525 34.8725 45.5625 35.0275 46.475C35.385 48.6 36.615 50.5525 38.07 51.3075C38.815 51.6925 39.5575 51.76 40.195 51.495C41.135 51.105 41.7525 50.095 41.955 48.6125C41.995 48.315 41.995 47.4325 41.9525 47.0875C41.6275 44.3325 39.93 41.915 38.0425 41.5125C37.82 41.465 37.425 41.4475 37.2375 41.475Z" fill="#FFE5E5"/>
<path d="M58.425 43.5C57.525 43.6925 56.6425 44.325 55.91 45.305C55.115 46.37 54.58 47.76 54.425 49.16C54.385 49.525 54.3925 50.31 54.4375 50.6625C54.7425 53.0325 56.3525 54.17 58.175 53.31C59.1525 52.8475 60.0375 51.895 60.67 50.6275C61.87 48.2275 61.7925 45.415 60.4875 44.1125C59.9375 43.5625 59.18 43.3375 58.425 43.5Z" fill="#FFE5E5"/>
<path d="M47.5625 47.9475C45.9075 48.2425 43.82 49.98 41.97 52.6C40.5225 54.6525 39.5025 56.8625 39.1975 58.6125C39.125 59.0325 39.1175 59.7825 39.1825 60.07C39.285 60.5175 39.4575 60.8125 39.7925 61.125C40.3525 61.6425 41.025 61.9475 41.8675 62.065C42.305 62.125 43.19 62.1025 43.7525 62.0175C44.505 61.9 45.14 61.7475 46.5625 61.3375C47.9375 60.9425 48.3225 60.86 48.7025 60.885C49.185 60.9175 49.5475 61.035 50.5875 61.4925C51.3325 61.82 51.7475 61.975 52.1025 62.0625C53.4275 62.3825 54.5425 61.965 55.69 60.72C56.0325 60.35 56.1375 60.17 56.245 59.7775C56.305 59.5525 56.31 59.5025 56.31 58.975C56.31 58.4975 56.3025 58.3625 56.2525 58.0875C55.9575 56.42 55.08 54.405 53.8125 52.4875C52.305 50.2075 50.535 48.565 49.0575 48.0775C48.52 47.9 48.0625 47.86 47.5625 47.9475Z" fill="#FFE5E5"/>
<path d="M107.538 32.81C107.12 32.9075 106.805 33.09 106.448 33.4475C106.158 33.735 105.95 34.0275 105.75 34.425C104.558 36.81 104.96 40.745 106.633 43C106.86 43.3075 107.255 43.7125 107.525 43.915C108.41 44.5825 109.405 44.6175 110.203 44.01C111.02 43.385 111.58 42.18 111.793 40.5875C111.845 40.1775 111.855 38.9075 111.805 38.4875C111.6 36.7325 111.078 35.28 110.26 34.1825C110.055 33.91 109.653 33.5 109.4 33.3075C109.165 33.13 108.72 32.9 108.488 32.8375C108.28 32.78 107.733 32.765 107.538 32.81Z" fill="#FFE5E5"/>
<path d="M117.365 33.315C116.588 33.4675 115.775 34.0625 115.103 34.9675C114.238 36.13 113.653 37.6675 113.433 39.3625C113.363 39.9025 113.37 41.1075 113.445 41.5975C113.62 42.715 113.993 43.57 114.55 44.125C115.028 44.605 115.628 44.8275 116.238 44.755C117.69 44.575 119.123 42.99 119.888 40.715C120.523 38.8275 120.59 36.84 120.07 35.325C119.563 33.8475 118.533 33.0825 117.365 33.315Z" fill="#FFE5E5"/>
<path d="M101.238 41.475C100.215 41.6375 99.445 42.4625 99.0975 43.7725C98.9 44.525 98.8725 45.5625 99.0275 46.475C99.385 48.6 100.615 50.5525 102.07 51.3075C102.815 51.6925 103.558 51.76 104.195 51.495C105.135 51.105 105.753 50.095 105.955 48.6125C105.995 48.315 105.995 47.4325 105.953 47.0875C105.628 44.3325 103.93 41.915 102.043 41.5125C101.82 41.465 101.425 41.4475 101.238 41.475Z" fill="#FFE5E5"/>
<path d="M122.425 43.5C121.525 43.6925 120.643 44.325 119.91 45.305C119.115 46.37 118.58 47.76 118.425 49.16C118.385 49.525 118.393 50.31 118.438 50.6625C118.743 53.0325 120.353 54.17 122.175 53.31C123.153 52.8475 124.038 51.895 124.67 50.6275C125.87 48.2275 125.793 45.415 124.488 44.1125C123.938 43.5625 123.18 43.3375 122.425 43.5Z" fill="#FFE5E5"/>
<path d="M111.562 47.9475C109.907 48.2425 107.82 49.98 105.97 52.6C104.522 54.6525 103.502 56.8625 103.197 58.6125C103.125 59.0325 103.117 59.7825 103.182 60.07C103.285 60.5175 103.457 60.8125 103.792 61.125C104.352 61.6425 105.025 61.9475 105.867 62.065C106.305 62.125 107.19 62.1025 107.752 62.0175C108.505 61.9 109.14 61.7475 110.562 61.3375C111.938 60.9425 112.323 60.86 112.703 60.885C113.185 60.9175 113.547 61.035 114.587 61.4925C115.332 61.82 115.747 61.975 116.102 62.0625C117.427 62.3825 118.542 61.965 119.69 60.72C120.032 60.35 120.137 60.17 120.245 59.7775C120.305 59.5525 120.31 59.5025 120.31 58.975C120.31 58.4975 120.302 58.3625 120.252 58.0875C119.957 56.42 119.08 54.405 117.812 52.4875C116.305 50.2075 114.535 48.565 113.058 48.0775C112.52 47.9 112.063 47.86 111.562 47.9475Z" fill="#FFE5E5"/>
<path d="M107.538 96.81C107.12 96.9075 106.805 97.09 106.448 97.4475C106.158 97.735 105.95 98.0275 105.75 98.425C104.558 100.81 104.96 104.745 106.633 107C106.86 107.307 107.255 107.712 107.525 107.915C108.41 108.582 109.405 108.617 110.203 108.01C111.02 107.385 111.58 106.18 111.793 104.587C111.845 104.177 111.855 102.907 111.805 102.487C111.6 100.732 111.078 99.28 110.26 98.1825C110.055 97.91 109.653 97.5 109.4 97.3075C109.165 97.13 108.72 96.9 108.488 96.8375C108.28 96.78 107.733 96.765 107.538 96.81Z" fill="#FFE5E5"/>
<path d="M117.365 97.315C116.588 97.4675 115.775 98.0625 115.103 98.9675C114.238 100.13 113.653 101.667 113.433 103.362C113.363 103.902 113.37 105.107 113.445 105.597C113.62 106.715 113.993 107.57 114.55 108.125C115.028 108.605 115.628 108.827 116.238 108.755C117.69 108.575 119.123 106.99 119.888 104.715C120.523 102.827 120.59 100.84 120.07 99.325C119.563 97.8475 118.533 97.0825 117.365 97.315Z" fill="#FFE5E5"/>
<path d="M101.238 105.475C100.215 105.637 99.445 106.462 99.0975 107.772C98.9 108.525 98.8725 109.562 99.0275 110.475C99.385 112.6 100.615 114.552 102.07 115.307C102.815 115.692 103.558 115.76 104.195 115.495C105.135 115.105 105.753 114.095 105.955 112.612C105.995 112.315 105.995 111.432 105.953 111.087C105.628 108.332 103.93 105.915 102.043 105.512C101.82 105.465 101.425 105.447 101.238 105.475Z" fill="#FFE5E5"/>
<path d="M122.425 107.5C121.525 107.693 120.643 108.325 119.91 109.305C119.115 110.37 118.58 111.76 118.425 113.16C118.385 113.525 118.393 114.31 118.438 114.663C118.743 117.033 120.353 118.17 122.175 117.31C123.153 116.848 124.038 115.895 124.67 114.628C125.87 112.228 125.793 109.415 124.488 108.113C123.938 107.563 123.18 107.338 122.425 107.5Z" fill="#FFE5E5"/>
<path d="M111.562 111.948C109.907 112.243 107.82 113.98 105.97 116.6C104.522 118.653 103.502 120.863 103.197 122.613C103.125 123.033 103.117 123.783 103.182 124.07C103.285 124.518 103.457 124.813 103.792 125.125C104.352 125.643 105.025 125.948 105.867 126.065C106.305 126.125 107.19 126.103 107.752 126.018C108.505 125.9 109.14 125.748 110.562 125.338C111.938 124.943 112.323 124.86 112.703 124.885C113.185 124.918 113.547 125.035 114.587 125.493C115.332 125.82 115.747 125.975 116.102 126.063C117.427 126.383 118.542 125.965 119.69 124.72C120.032 124.35 120.137 124.17 120.245 123.778C120.305 123.553 120.31 123.503 120.31 122.975C120.31 122.498 120.302 122.363 120.252 122.088C119.957 120.42 119.08 118.405 117.812 116.488C116.305 114.208 114.535 112.565 113.058 112.078C112.52 111.9 112.063 111.86 111.562 111.948Z" fill="#FFE5E5"/>
<path d="M43.5375 96.81C43.12 96.9075 42.805 97.09 42.4475 97.4475C42.1575 97.735 41.95 98.0275 41.75 98.425C40.5575 100.81 40.96 104.745 42.6325 107C42.86 107.307 43.255 107.712 43.525 107.915C44.41 108.582 45.405 108.617 46.2025 108.01C47.02 107.385 47.58 106.18 47.7925 104.587C47.845 104.177 47.855 102.907 47.805 102.487C47.6 100.732 47.0775 99.28 46.26 98.1825C46.055 97.91 45.6525 97.5 45.4 97.3075C45.165 97.13 44.72 96.9 44.4875 96.8375C44.28 96.78 43.7325 96.765 43.5375 96.81Z" fill="#FFE5E5"/>
<path d="M53.365 97.315C52.5875 97.4675 51.775 98.0625 51.1025 98.9675C50.2375 100.13 49.6525 101.667 49.4325 103.362C49.3625 103.902 49.37 105.107 49.445 105.597C49.62 106.715 49.9925 107.57 50.55 108.125C51.0275 108.605 51.6275 108.827 52.2375 108.755C53.69 108.575 55.1225 106.99 55.8875 104.715C56.5225 102.827 56.59 100.84 56.07 99.325C55.5625 97.8475 54.5325 97.0825 53.365 97.315Z" fill="#FFE5E5"/>
<path d="M37.2375 105.475C36.215 105.637 35.445 106.462 35.0975 107.772C34.9 108.525 34.8725 109.562 35.0275 110.475C35.385 112.6 36.615 114.552 38.07 115.307C38.815 115.692 39.5575 115.76 40.195 115.495C41.135 115.105 41.7525 114.095 41.955 112.612C41.995 112.315 41.995 111.432 41.9525 111.087C41.6275 108.332 39.93 105.915 38.0425 105.512C37.82 105.465 37.425 105.447 37.2375 105.475Z" fill="#FFE5E5"/>
<path d="M58.425 107.5C57.525 107.693 56.6425 108.325 55.91 109.305C55.115 110.37 54.58 111.76 54.425 113.16C54.385 113.525 54.3925 114.31 54.4375 114.663C54.7425 117.033 56.3525 118.17 58.175 117.31C59.1525 116.848 60.0375 115.895 60.67 114.628C61.87 112.228 61.7925 109.415 60.4875 108.113C59.9375 107.563 59.18 107.338 58.425 107.5Z" fill="#FFE5E5"/>
<path d="M47.5625 111.948C45.9075 112.243 43.82 113.98 41.97 116.6C40.5225 118.653 39.5025 120.863 39.1975 122.613C39.125 123.033 39.1175 123.783 39.1825 124.07C39.285 124.518 39.4575 124.813 39.7925 125.125C40.3525 125.643 41.025 125.948 41.8675 126.065C42.305 126.125 43.19 126.103 43.7525 126.018C44.505 125.9 45.14 125.748 46.5625 125.338C47.9375 124.943 48.3225 124.86 48.7025 124.885C49.185 124.918 49.5475 125.035 50.5875 125.493C51.3325 125.82 51.7475 125.975 52.1025 126.063C53.4275 126.383 54.5425 125.965 55.69 124.72C56.0325 124.35 56.1375 124.17 56.245 123.778C56.305 123.553 56.31 123.503 56.31 122.975C56.31 122.498 56.3025 122.363 56.2525 122.088C55.9575 120.42 55.08 118.405 53.8125 116.488C52.305 114.208 50.535 112.565 49.0575 112.078C48.52 111.9 48.0625 111.86 47.5625 111.948Z" fill="#FFE5E5"/>
</svg>
