<svg width="161" height="38" viewBox="0 0 161 38" fill="none" xmlns="http://www.w3.org/2000/svg">
<path d="M60.8 22.088V13.352C60.8 10.744 62.104 9.44 64.712 9.44H71.24L72.656 10.544V12.104H64.784C64.08 12.104 63.728 12.448 63.728 13.136V22.304C63.728 22.992 64.08 23.336 64.784 23.336H72.656V24.896L71.24 26H64.712C62.104 26 60.8 24.696 60.8 22.088ZM78.7794 26C76.2514 26 74.9874 24.752 74.9874 22.256C74.9874 19.76 76.2514 18.512 78.7794 18.512H82.4754V16.952C82.4754 16.216 82.1074 15.848 81.3714 15.848H76.2834V14.336L77.5314 13.4H81.5154C84.0274 13.4 85.2834 14.664 85.2834 17.192V26H78.7794ZM77.7954 22.448C77.7954 23.184 78.1634 23.552 78.8994 23.552H82.4754V20.696H78.8994C78.1634 20.696 77.7954 21.056 77.7954 21.776V22.448ZM86.5994 12.104V9.44H99.9674V12.104H94.7594V26H91.8074V12.104H86.5994ZM102.355 22.088V13.352C102.355 10.744 103.659 9.44 106.267 9.44H113.299L114.715 10.544V12.104H106.339C105.635 12.104 105.283 12.448 105.283 13.136V22.304C105.283 22.992 105.635 23.336 106.339 23.336H112.267V18.752H108.763V16.088H115.195V26H106.267C103.659 26 102.355 24.696 102.355 22.088ZM118.454 26V14.96C119.03 13.92 120.134 13.4 121.766 13.4H124.286L125.558 14.336V15.848H122.414C121.87 15.848 121.486 15.984 121.262 16.256V26H118.454ZM130.858 26C128.33 26 127.066 24.752 127.066 22.256C127.066 19.76 128.33 18.512 130.858 18.512H134.554V16.952C134.554 16.216 134.186 15.848 133.45 15.848H128.362V14.336L129.61 13.4H133.594C136.106 13.4 137.362 14.664 137.362 17.192V26H130.858ZM129.874 22.448C129.874 23.184 130.242 23.552 130.978 23.552H134.554V20.696H130.978C130.242 20.696 129.874 21.056 129.874 21.776V22.448ZM140.863 26V13.4H155.215C157.727 13.4 158.983 14.664 158.983 17.192V26H156.175V16.952C156.175 16.216 155.807 15.848 155.071 15.848H151.327V26H148.519V15.848H143.671V26H140.863Z" fill="#FFFCFC"/>
<path fill-rule="evenodd" clip-rule="evenodd" d="M26.8752 3.5159C23.1745 3.5159 22.8055 3.90625 20.8902 3.90625C19.2942 3.90625 14.5061 0 12.1121 0C9.7181 0 6.9251 1.40625 6.9251 5.46875V10.1562C6.92992 11.3867 7.37702 15.1585 9.12687 14.1505C7.05807 16.5955 6.84907 19.4465 6.8775 22.2065C6.3203 22.3675 5.7518 22.549 5.20007 22.7375C3.49035 23.3222 1.67712 24.0677 0.857999 24.5967C-0.0118984 25.1585 -0.261653 26.3192 0.300149 27.189C0.861949 28.059 2.02257 28.3087 2.89245 27.747C3.283 27.4947 4.69557 26.8732 6.4133 26.286C6.6031 26.221 6.79327 26.1577 6.98245 26.0965C7.09812 27.181 7.3852 28.171 7.81195 29.073L7.753 29.104C6.7287 29.6452 5.77825 30.2667 5.17222 30.663C5.06735 30.7315 4.9728 30.7932 4.88997 30.8467C4.02007 31.4085 3.77032 32.5692 4.33212 33.439C4.89392 34.309 6.05455 34.5587 6.92445 33.997C7.02725 33.9305 7.1368 33.859 7.25242 33.7835C7.86575 33.3832 8.64997 32.8712 9.50497 32.4195C9.70545 32.3135 9.89837 32.2175 10.0829 32.131C14.4087 36.187 22.1748 37.5 26.8752 37.5C31.5755 37.5 39.3417 36.187 43.6675 32.131C43.852 32.2175 44.0447 32.3135 44.2452 32.4195C45.1002 32.8712 45.8845 33.3832 46.4977 33.7835C46.6135 33.859 46.723 33.9305 46.8257 33.997C47.6957 34.5587 48.8562 34.309 49.4182 33.439C49.98 32.5692 49.7302 31.4085 48.8602 30.8467C48.7775 30.7932 48.683 30.7315 48.578 30.663C47.972 30.2667 47.0215 29.6452 45.9972 29.104L45.9385 29.073C46.3652 28.1707 46.6522 27.181 46.768 26.0962C46.9575 26.1575 47.148 26.2207 47.338 26.286C49.0557 26.8732 50.4685 27.4947 50.859 27.747C51.7287 28.3087 52.8895 28.059 53.4512 27.189C54.013 26.3192 53.7632 25.1585 52.8935 24.5967C52.0742 24.0677 50.261 23.3222 48.5512 22.7375C47.9992 22.5487 47.4305 22.3675 46.873 22.2062C46.9012 19.4462 46.6922 16.5955 44.6235 14.1505C46.3735 15.1585 46.8205 11.3867 46.8255 10.1562V5.46902C46.8255 1.40653 44.0322 0.000275373 41.6382 0.000275373C39.2442 0.000275373 34.4562 3.90625 32.8602 3.90625C30.945 3.90625 30.5762 3.5159 26.8752 3.5159ZM25.1862 26.501C25.6927 26.3285 26.2905 26.25 26.8752 26.25C27.46 26.25 28.0577 26.3285 28.5642 26.501C28.8127 26.5855 29.1167 26.719 29.3842 26.9345C29.653 27.1507 30.0002 27.5515 30.0002 28.125C30.0002 28.6985 29.653 29.0992 29.3842 29.3155C29.1167 29.531 28.8127 29.6645 28.5642 29.749C28.0577 29.9215 27.46 30 26.8752 30C26.2905 30 25.6927 29.9215 25.1862 29.749C24.9377 29.6645 24.6337 29.531 24.366 29.3155C24.0972 29.0992 23.7502 28.6985 23.7502 28.125C23.7502 27.5515 24.0972 27.1507 24.366 26.9345C24.6337 26.719 24.9377 26.5855 25.1862 26.501ZM32.3002 18.7512C32.6415 18.1802 33.315 17.5 34.3252 17.5C35.3355 17.5 36.009 18.1802 36.35 18.7512C36.7057 19.3467 36.8752 20.0685 36.8752 20.7812C36.8752 21.494 36.7057 22.2157 36.35 22.8112C36.009 23.3822 35.3355 24.0625 34.3252 24.0625C33.315 24.0625 32.6415 23.3822 32.3002 22.8112C31.9445 22.2157 31.7752 21.494 31.7752 20.7812C31.7752 20.0685 31.9445 19.3467 32.3002 18.7512ZM17.4004 18.7512C17.7414 18.1802 18.415 17.5 19.4252 17.5C20.4355 17.5 21.109 18.1802 21.4501 18.7512C21.8058 19.3467 21.9753 20.0685 21.9753 20.7812C21.9753 21.494 21.8058 22.2157 21.4501 22.8112C21.109 23.3822 20.4355 24.0625 19.4252 24.0625C18.415 24.0625 17.7414 23.3822 17.4004 22.8112C17.0446 22.2157 16.8752 21.494 16.8752 20.7812C16.8752 20.0685 17.0446 19.3467 17.4004 18.7512Z" fill="#FFFCFC"/>
</svg>
