<svg width="52" height="52" viewBox="0 0 52 52" fill="none" xmlns="http://www.w3.org/2000/svg">
<path d="M25.9871 46.0958L22.5475 43.0071C18.8657 39.6951 15.8224 36.8345 13.4175 34.4253C11.0126 32.016 9.10378 29.8527 7.69112 27.9352C6.27845 26.0178 5.29009 24.2517 4.72603 22.6369C4.16201 21.0222 3.88 19.3626 3.88 17.6583C3.88 14.1347 5.05956 11.1922 7.41866 8.83061C9.77773 6.46905 12.7172 5.28827 16.2371 5.28827C18.1056 5.28827 19.8843 5.66823 21.5732 6.42815C23.2621 7.18804 24.7334 8.26861 25.9871 9.66986C27.2408 8.26861 28.712 7.18804 30.4009 6.42815C32.0898 5.66823 33.8685 5.28827 35.7371 5.28827C39.2644 5.28827 42.21 6.46905 44.574 8.83061C46.9381 11.1922 48.1201 14.1347 48.1201 17.6583C48.1201 19.354 47.8402 21.0092 47.2805 22.624C46.7208 24.2388 45.7324 26.0027 44.3155 27.9159C42.8985 29.8289 40.9854 31.9923 38.5761 34.4058C36.1669 36.8194 33.1171 39.6865 29.4267 43.0071L25.9871 46.0958ZM25.9871 39.4557C29.4365 36.3501 32.2742 33.6977 34.5001 31.4985C36.726 29.2993 38.4825 27.3846 39.7695 25.7544C41.0566 24.1243 41.9486 22.6785 42.4455 21.4169C42.9425 20.1552 43.1909 18.9025 43.1909 17.6586C43.1909 15.5263 42.4816 13.753 41.063 12.3388C39.6445 10.9246 37.8712 10.2174 35.7433 10.2174C34.0765 10.2174 32.5295 10.6959 31.1023 11.6529C29.6751 12.6098 28.6907 13.8285 28.1491 15.3091H23.8381C23.3005 13.8285 22.3149 12.6098 20.8814 11.6529C19.4479 10.6959 17.9009 10.2174 16.2406 10.2174C14.121 10.2174 12.3547 10.9246 10.9417 12.3388C9.52869 13.753 8.82217 15.5262 8.82217 17.6583C8.82217 18.9115 9.07253 20.1736 9.57325 21.4446C10.074 22.7157 10.9681 24.1657 12.2556 25.7948C13.5432 27.4239 15.2956 29.3359 17.5129 31.5309C19.7302 33.7258 22.555 36.3674 25.9871 39.4557Z" fill="#FFFCFC"/>
</svg>
