<svg width="60" height="60" viewBox="0 0 60 60" fill="none" xmlns="http://www.w3.org/2000/svg">
<path fill-rule="evenodd" clip-rule="evenodd" d="M29.3752 16.0159C25.6745 16.0159 25.3055 16.4062 23.3902 16.4062C21.7942 16.4062 17.0061 12.5 14.6121 12.5C12.2181 12.5 9.4251 13.9062 9.4251 17.9687V22.6562C9.42992 23.8867 9.87702 27.6585 11.6269 26.6505C9.55807 29.0955 9.34907 31.9465 9.3775 34.7065C8.8203 34.8675 8.2518 35.049 7.70007 35.2375C5.99035 35.8222 4.17712 36.5677 3.358 37.0967C2.4881 37.6585 2.23835 38.8192 2.80015 39.689C3.36195 40.559 4.52257 40.8087 5.39245 40.247C5.783 39.9947 7.19557 39.3732 8.9133 38.786C9.1031 38.721 9.29327 38.6577 9.48245 38.5965C9.59812 39.681 9.8852 40.671 10.3119 41.573L10.253 41.604C9.2287 42.1452 8.27825 42.7667 7.67222 43.163C7.56735 43.2315 7.4728 43.2932 7.38997 43.3467C6.52007 43.9085 6.27032 45.0692 6.83212 45.939C7.39392 46.809 8.55455 47.0588 9.42445 46.497C9.52725 46.4305 9.6368 46.359 9.75242 46.2835C10.3657 45.8832 11.15 45.3712 12.005 44.9195C12.2054 44.8135 12.3984 44.7175 12.5829 44.631C16.9087 48.687 24.6748 50 29.3752 50C34.0755 50 41.8417 48.687 46.1675 44.631C46.352 44.7175 46.5447 44.8135 46.7452 44.9195C47.6002 45.3712 48.3845 45.8832 48.9977 46.2835C49.1135 46.359 49.223 46.4305 49.3257 46.497C50.1957 47.0588 51.3562 46.809 51.9182 45.939C52.48 45.0692 52.2302 43.9085 51.3602 43.3467C51.2775 43.2932 51.183 43.2315 51.078 43.163C50.472 42.7667 49.5215 42.1452 48.4972 41.604L48.4385 41.573C48.8652 40.6707 49.1522 39.681 49.268 38.5962C49.4575 38.6575 49.648 38.7207 49.838 38.786C51.5557 39.3732 52.9685 39.9947 53.359 40.247C54.2287 40.8087 55.3895 40.559 55.9512 39.689C56.513 38.8192 56.2632 37.6585 55.3935 37.0967C54.5742 36.5677 52.761 35.8222 51.0512 35.2375C50.4992 35.0487 49.9305 34.8675 49.373 34.7062C49.4012 31.9462 49.1922 29.0955 47.1235 26.6505C48.8735 27.6585 49.3205 23.8867 49.3255 22.6562V17.969C49.3255 13.9065 46.5322 12.5003 44.1382 12.5003C41.7442 12.5003 36.9562 16.4062 35.3602 16.4062C33.445 16.4062 33.0762 16.0159 29.3752 16.0159ZM27.6862 39.001C28.1927 38.8285 28.7905 38.75 29.3752 38.75C29.96 38.75 30.5577 38.8285 31.0642 39.001C31.3127 39.0855 31.6167 39.219 31.8842 39.4345C32.153 39.6507 32.5002 40.0515 32.5002 40.625C32.5002 41.1985 32.153 41.5992 31.8842 41.8155C31.6167 42.031 31.3127 42.1645 31.0642 42.249C30.5577 42.4215 29.96 42.5 29.3752 42.5C28.7905 42.5 28.1927 42.4215 27.6862 42.249C27.4377 42.1645 27.1337 42.031 26.866 41.8155C26.5972 41.5992 26.2502 41.1985 26.2502 40.625C26.2502 40.0515 26.5972 39.6507 26.866 39.4345C27.1337 39.219 27.4377 39.0855 27.6862 39.001ZM34.8002 31.2512C35.1415 30.6802 35.815 30 36.8252 30C37.8355 30 38.509 30.6802 38.85 31.2512C39.2057 31.8467 39.3752 32.5685 39.3752 33.2812C39.3752 33.994 39.2057 34.7157 38.85 35.3112C38.509 35.8822 37.8355 36.5625 36.8252 36.5625C35.815 36.5625 35.1415 35.8822 34.8002 35.3112C34.4445 34.7157 34.2752 33.994 34.2752 33.2812C34.2752 32.5685 34.4445 31.8467 34.8002 31.2512ZM19.9004 31.2512C20.2414 30.6802 20.915 30 21.9252 30C22.9355 30 23.609 30.6802 23.9501 31.2512C24.3058 31.8467 24.4753 32.5685 24.4753 33.2812C24.4753 33.994 24.3058 34.7157 23.9501 35.3112C23.609 35.8822 22.9355 36.5625 21.9252 36.5625C20.915 36.5625 20.2414 35.8822 19.9004 35.3112C19.5446 34.7157 19.3752 33.994 19.3752 33.2812C19.3752 32.5685 19.5446 31.8467 19.9004 31.2512Z" fill="#150E3E"/>
</svg>
