<svg width="209" height="60" viewBox="0 0 209 60" fill="none" xmlns="http://www.w3.org/2000/svg">
<path d="M71.216 36.416V26.384C71.216 21.328 73.744 18.8 78.8 18.8H87.872L90.416 20.672V23.696H79.04C77.568 23.696 76.832 24.432 76.832 25.904V36.896C76.832 38.368 77.568 39.104 79.04 39.104H90.416V42.128L87.872 44H78.8C73.744 44 71.216 41.472 71.216 36.416ZM102.449 44C97.3934 44 94.8654 41.504 94.8654 36.512C94.8654 31.52 97.3934 29.024 102.449 29.024H109.841V25.904C109.841 24.432 109.105 23.696 107.633 23.696H97.4574V20.672L99.9534 18.8H107.921C112.945 18.8 115.457 21.328 115.457 26.384V44H102.449ZM100.481 36.896C100.481 38.368 101.217 39.104 102.689 39.104H109.841V33.392H102.689C101.217 33.392 100.481 34.112 100.481 35.552V36.896ZM122.267 36.416V10.88H127.883V18.8H136.475V23.696H127.883V36.896C127.883 38.368 128.619 39.104 130.091 39.104H136.955V42.128L134.411 44H129.851C124.795 44 122.267 41.472 122.267 36.416ZM142.096 35.648V8.48H147.712V36.224C147.712 38.304 148.768 39.424 150.88 39.584V44.432C145.024 44.432 142.096 41.504 142.096 35.648ZM155.919 36.416V26.384C155.919 21.328 158.447 18.8 163.503 18.8H170.223C175.247 18.8 177.759 21.328 177.759 26.384V36.416C177.759 41.472 175.247 44 170.223 44H163.503C158.447 44 155.919 41.472 155.919 36.416ZM161.535 36.896C161.535 38.368 162.271 39.104 163.743 39.104H169.935C171.407 39.104 172.143 38.368 172.143 36.896V25.904C172.143 24.432 171.407 23.696 169.935 23.696H163.743C162.271 23.696 161.535 24.432 161.535 25.904V36.896ZM184.041 36.416V26.384C184.041 21.328 186.569 18.8 191.625 18.8H205.449V46.016C205.449 51.072 202.921 53.6 197.865 53.6H188.697L186.153 51.728V48.704H197.625C199.097 48.704 199.833 47.968 199.833 46.496V44H191.625C186.569 44 184.041 41.472 184.041 36.416ZM189.657 36.896C189.657 38.368 190.393 39.104 191.865 39.104H199.833V23.696H191.865C190.393 23.696 189.657 24.432 189.657 25.904V36.896Z" fill="#150E3E"/>
<path fill-rule="evenodd" clip-rule="evenodd" d="M27.3752 16.0159C23.6745 16.0159 23.3055 16.4062 21.3902 16.4062C19.7942 16.4062 15.0061 12.5 12.6121 12.5C10.2181 12.5 7.4251 13.9062 7.4251 17.9687V22.6562C7.42992 23.8867 7.87702 27.6585 9.62687 26.6505C7.55807 29.0955 7.34907 31.9465 7.3775 34.7065C6.8203 34.8675 6.2518 35.049 5.70007 35.2375C3.99035 35.8222 2.17712 36.5677 1.358 37.0967C0.488102 37.6585 0.238347 38.8192 0.800149 39.689C1.36195 40.559 2.52257 40.8087 3.39245 40.247C3.783 39.9947 5.19557 39.3732 6.9133 38.786C7.1031 38.721 7.29327 38.6577 7.48245 38.5965C7.59812 39.681 7.8852 40.671 8.31195 41.573L8.253 41.604C7.2287 42.1452 6.27825 42.7667 5.67222 43.163C5.56735 43.2315 5.4728 43.2932 5.38997 43.3467C4.52007 43.9085 4.27032 45.0692 4.83212 45.939C5.39392 46.809 6.55455 47.0587 7.42445 46.497C7.52725 46.4305 7.6368 46.359 7.75242 46.2835C8.36575 45.8832 9.14997 45.3712 10.005 44.9195C10.2054 44.8135 10.3984 44.7175 10.5829 44.631C14.9087 48.687 22.6748 50 27.3752 50C32.0755 50 39.8417 48.687 44.1675 44.631C44.352 44.7175 44.5447 44.8135 44.7452 44.9195C45.6002 45.3712 46.3845 45.8832 46.9977 46.2835C47.1135 46.359 47.223 46.4305 47.3257 46.497C48.1957 47.0587 49.3562 46.809 49.9182 45.939C50.48 45.0692 50.2302 43.9085 49.3602 43.3467C49.2775 43.2932 49.183 43.2315 49.078 43.163C48.472 42.7667 47.5215 42.1452 46.4972 41.604L46.4385 41.573C46.8652 40.6707 47.1522 39.681 47.268 38.5962C47.4575 38.6575 47.648 38.7207 47.838 38.786C49.5557 39.3732 50.9685 39.9947 51.359 40.247C52.2287 40.8087 53.3895 40.559 53.9512 39.689C54.513 38.8192 54.2632 37.6585 53.3935 37.0967C52.5742 36.5677 50.761 35.8222 49.0512 35.2375C48.4992 35.0487 47.9305 34.8675 47.373 34.7062C47.4012 31.9462 47.1922 29.0955 45.1235 26.6505C46.8735 27.6585 47.3205 23.8867 47.3255 22.6562V17.969C47.3255 13.9065 44.5322 12.5003 42.1382 12.5003C39.7442 12.5003 34.9562 16.4062 33.3602 16.4062C31.445 16.4062 31.0762 16.0159 27.3752 16.0159ZM25.6862 39.001C26.1927 38.8285 26.7905 38.75 27.3752 38.75C27.96 38.75 28.5577 38.8285 29.0642 39.001C29.3127 39.0855 29.6167 39.219 29.8842 39.4345C30.153 39.6507 30.5002 40.0515 30.5002 40.625C30.5002 41.1985 30.153 41.5992 29.8842 41.8155C29.6167 42.031 29.3127 42.1645 29.0642 42.249C28.5577 42.4215 27.96 42.5 27.3752 42.5C26.7905 42.5 26.1927 42.4215 25.6862 42.249C25.4377 42.1645 25.1337 42.031 24.866 41.8155C24.5972 41.5992 24.2502 41.1985 24.2502 40.625C24.2502 40.0515 24.5972 39.6507 24.866 39.4345C25.1337 39.219 25.4377 39.0855 25.6862 39.001ZM32.8002 31.2512C33.1415 30.6802 33.815 30 34.8252 30C35.8355 30 36.509 30.6802 36.85 31.2512C37.2057 31.8467 37.3752 32.5685 37.3752 33.2812C37.3752 33.994 37.2057 34.7157 36.85 35.3112C36.509 35.8822 35.8355 36.5625 34.8252 36.5625C33.815 36.5625 33.1415 35.8822 32.8002 35.3112C32.4445 34.7157 32.2752 33.994 32.2752 33.2812C32.2752 32.5685 32.4445 31.8467 32.8002 31.2512ZM17.9004 31.2512C18.2414 30.6802 18.915 30 19.9252 30C20.9355 30 21.609 30.6802 21.9501 31.2512C22.3058 31.8467 22.4753 32.5685 22.4753 33.2812C22.4753 33.994 22.3058 34.7157 21.9501 35.3112C21.609 35.8822 20.9355 36.5625 19.9252 36.5625C18.915 36.5625 18.2414 35.8822 17.9004 35.3112C17.5446 34.7157 17.3752 33.994 17.3752 33.2812C17.3752 32.5685 17.5446 31.8467 17.9004 31.2512Z" fill="#150E3E"/>
</svg>
